<svg width="174" height="54" viewBox="0 0 174 54" fill="none" xmlns="http://www.w3.org/2000/svg">
<path d="M74.3614 34.8908C72.6155 34.8908 71.0359 34.5577 69.6226 33.8499C68.2092 33.1421 66.9622 32.1845 65.9645 31.0188C64.9668 29.8114 64.177 28.4374 63.5951 26.8137C63.0131 25.2316 62.7637 23.4829 62.7637 21.651C62.7637 19.7358 63.0547 17.9455 63.6782 16.2801C64.2602 14.6147 65.0915 13.1992 66.1723 11.9918C67.2531 10.7844 68.5002 9.82678 69.9967 9.11899C71.4932 8.4112 73.1559 8.07812 74.9434 8.07812C76.9387 8.07812 78.6846 8.49447 80.1396 9.3688C81.636 10.2015 82.8 11.4089 83.7145 12.9077V8.57774H90.6565V32.9756C90.6565 34.974 90.2824 36.7643 89.5342 38.3881C88.7859 39.9702 87.7467 41.3441 86.4165 42.4683C85.0863 43.5924 83.5067 44.4251 81.636 45.0496C79.7654 45.6325 77.7285 45.9656 75.4838 45.9656C72.6571 45.9656 70.2461 45.5076 68.2508 44.6333C66.2555 43.7173 64.5096 42.4266 63.0131 40.7196L67.2947 36.3896C68.2508 37.4721 69.4563 38.3464 70.8696 39.0126C72.283 39.6787 73.8211 39.9702 75.4422 39.9702C76.3983 39.9702 77.3129 39.8453 78.1858 39.5538C79.0588 39.304 79.807 38.8877 80.4721 38.3464C81.1372 37.8052 81.6776 37.0974 82.0517 36.1814C82.4259 35.3071 82.6337 34.2246 82.6337 33.0172V30.4775C81.8439 31.9347 80.68 33.0588 79.1835 33.8083C77.687 34.5161 76.0658 34.8908 74.3614 34.8908ZM77.105 28.5207C78.3521 28.5207 79.4329 28.1876 80.389 27.4798C81.3451 26.8137 82.0933 25.9393 82.6337 24.8568V19.4027C82.0933 17.9871 81.3035 16.9046 80.1811 16.072C79.1003 15.2393 77.9364 14.8646 76.6893 14.8646C75.8164 14.8646 75.0266 15.0727 74.3199 15.4474C73.6132 15.8221 72.9897 16.3634 72.4908 16.9879C71.992 17.6541 71.5763 18.4035 71.2853 19.2362C70.9944 20.0689 70.8696 20.9432 70.8696 21.8592C70.8696 22.8168 71.0359 23.7327 71.3269 24.5238C71.6595 25.3565 72.0751 26.0642 72.6571 26.6471C73.2391 27.23 73.8626 27.7296 74.6109 28.0627C75.3591 28.3541 76.1905 28.5207 77.105 28.5207Z" fill="#1E1C1C"/>
<path d="M108.822 35.2646C106.619 35.2646 104.665 34.8899 102.92 34.1821C101.174 33.4743 99.6772 32.4751 98.4717 31.2677C97.2662 30.0187 96.3517 28.6031 95.6866 26.9794C95.063 25.3556 94.7305 23.6902 94.7305 21.8999C94.7305 19.9848 95.063 18.1945 95.6866 16.5291C96.3101 14.8637 97.2246 13.3649 98.4301 12.1158C99.6356 10.8668 101.091 9.86756 102.836 9.11814C104.582 8.36872 106.578 8.03564 108.781 8.03564C111.026 8.03564 112.979 8.41036 114.725 9.11814C116.471 9.86756 117.926 10.8252 119.132 12.0742C120.337 13.3232 121.252 14.7804 121.834 16.4042C122.457 18.0279 122.748 19.735 122.748 21.5669C122.748 22.0249 122.748 22.4828 122.706 22.9408C122.665 23.3988 122.623 23.7735 122.54 24.1066H103.252C103.377 25.8552 104.042 27.2292 105.164 28.1451C106.328 29.0611 107.617 29.5191 109.072 29.5191C110.236 29.5191 111.358 29.2276 112.439 28.6864C113.52 28.1035 114.226 27.3541 114.601 26.3965L121.376 28.3117C120.337 30.3934 118.757 32.0588 116.596 33.3494C114.434 34.6401 111.857 35.2646 108.822 35.2646ZM114.351 19.1937C114.185 17.5283 113.603 16.196 112.564 15.2384C111.524 14.2808 110.236 13.7812 108.739 13.7812C107.16 13.7812 105.871 14.2808 104.873 15.2384C103.876 16.2376 103.252 17.5283 103.086 19.1521H114.351V19.1937Z" fill="#1E1C1C"/>
<path d="M139.293 35.2649C137.049 35.2649 135.095 34.8901 133.349 34.1824C131.603 33.4329 130.148 32.4753 128.943 31.2263C127.737 29.9773 126.823 28.5201 126.241 26.8963C125.617 25.2309 125.326 23.5239 125.326 21.7336C125.326 19.9433 125.617 18.1947 126.241 16.5709C126.864 14.9056 127.779 13.49 128.943 12.241C130.148 10.9919 131.603 9.99269 133.349 9.24327C135.095 8.49385 137.09 8.11914 139.293 8.11914C141.538 8.11914 143.492 8.49385 145.238 9.24327C146.984 9.99269 148.439 10.9919 149.644 12.241C150.85 13.49 151.764 14.9472 152.388 16.5709C153.011 18.2363 153.344 19.9433 153.344 21.7336C153.344 23.5239 153.053 25.2726 152.429 26.8963C151.806 28.5617 150.891 29.9773 149.727 31.2263C148.522 32.4753 147.067 33.4746 145.321 34.1824C143.492 34.9318 141.538 35.2649 139.293 35.2649ZM133.474 21.692C133.474 23.7737 134.014 25.3975 135.136 26.6465C136.217 27.8955 137.631 28.5201 139.335 28.5201C140.166 28.5201 140.915 28.3535 141.621 28.0204C142.328 27.6874 142.91 27.2294 143.45 26.6049C143.949 26.022 144.365 25.2726 144.656 24.4399C144.947 23.6072 145.113 22.6496 145.113 21.6504C145.113 19.5686 144.573 17.9449 143.45 16.6959C142.369 15.4468 140.956 14.8223 139.293 14.8223C138.462 14.8223 137.672 14.9888 136.966 15.3219C136.259 15.655 135.635 16.113 135.136 16.7375C134.638 17.3204 134.222 18.0698 133.931 18.9025C133.598 19.7768 133.474 20.6928 133.474 21.692Z" fill="#1E1C1C"/>
<path d="M173.837 15.4053C171.924 15.4469 170.179 15.7384 168.599 16.3629C167.019 16.9458 165.897 17.8617 165.19 19.0691V34.807H157.209V8.57723H164.525V13.8648C165.44 12.1162 166.562 10.7006 167.975 9.70137C169.389 8.70214 170.885 8.20252 172.506 8.16089C172.881 8.16089 173.13 8.16089 173.296 8.16089C173.462 8.16089 173.629 8.16089 173.795 8.20252V15.4053H173.837Z" fill="#1E1C1C"/>
<path d="M27.5552 48.7541C40.2969 48.7541 50.6261 38.4087 50.6261 25.647C50.6261 12.8852 40.2969 2.53979 27.5552 2.53979C14.8135 2.53979 4.48438 12.8852 4.48438 25.647C4.48438 38.4087 14.8135 48.7541 27.5552 48.7541Z" fill="#E8EEEF"/>
<path d="M27.5111 0C12.5878 0 0.200194 11.9907 0.158625 26.8959C0.117056 34.3901 3.1516 41.1766 8.05675 46.0478C12.9203 50.9191 19.6545 53.9584 27.0954 53.9584C34.5363 53.9584 41.2705 50.9191 46.134 46.0478C50.9976 41.1766 54.0322 34.4318 54.0322 26.9792V6.16191C54.0737 2.78951 51.2886 0 47.8799 0H27.5111ZM45.7183 26.8959C45.7183 32.017 43.6399 36.68 40.2728 40.0108C36.9057 43.3832 32.2915 45.4649 27.1785 45.4649C22.0655 45.4649 17.4098 43.3832 14.0843 40.0108C10.7587 36.68 8.68029 32.1002 8.63872 27.0208C8.55558 16.7371 17.2435 8.32691 27.5111 8.32691H39.8987L32.8735 15.3631H27.4279C21.1094 15.3631 15.7886 20.3593 15.6639 26.6461C15.5808 29.9352 16.911 32.8913 19.031 35.0563C21.1094 37.138 23.9777 38.4287 27.1785 38.4287C29.839 38.4287 32.3331 37.5127 34.2868 35.9722C36.2406 34.4318 37.6955 32.2668 38.3191 29.8103H28.675L34.2868 24.1897H45.7183V26.8959Z" fill="#0375F8"/>
</svg>
